<?xml version="1.0" encoding="utf-8" standalone="no"?>
<!DOCTYPE svg PUBLIC "-//W3C//DTD SVG 1.1//EN"
  "http://www.w3.org/Graphics/SVG/1.1/DTD/svg11.dtd">
<svg xmlns:xlink="http://www.w3.org/1999/xlink" width="661.68pt" height="239.839906pt" viewBox="0 0 661.68 239.839906" xmlns="http://www.w3.org/2000/svg" version="1.1">
 <metadata>
  <rdf:RDF xmlns:dc="http://purl.org/dc/elements/1.1/" xmlns:cc="http://creativecommons.org/ns#" xmlns:rdf="http://www.w3.org/1999/02/22-rdf-syntax-ns#">
   <cc:Work>
    <dc:type rdf:resource="http://purl.org/dc/dcmitype/StillImage"/>
    <dc:date>2026-07-15T11:41:55.698497</dc:date>
    <dc:format>image/svg+xml</dc:format>
    <dc:creator>
     <cc:Agent>
      <dc:title>Matplotlib v3.10.8, https://matplotlib.org/</dc:title>
     </cc:Agent>
    </dc:creator>
   </cc:Work>
  </rdf:RDF>
 </metadata>
 <defs>
  <style type="text/css">*{stroke-linejoin: round; stroke-linecap: butt}</style>
 </defs>
 <g id="figure_1">
  <g id="patch_1">
   <path d="M 0 239.839906 
L 661.68 239.839906 
L 661.68 0 
L 0 0 
z
" style="fill: #ffffff"/>
  </g>
  <g id="axes_1">
   <g id="patch_2">
    <path d="M 106.546399 173.414168 
L 244.102952 173.414168 
L 244.102952 35.857615 
L 106.546399 35.857615 
L 106.546399 173.414168 
z
" clip-path="url(#p7bf8c6f5c6)" style="fill: none; stroke: #000000; stroke-width: 2; stroke-linejoin: miter"/>
   </g>
   <g id="patch_3">
    <path d="M 258.62281 169.622918 
Q 258.62281 104.633727 258.62281 39.644536 
" clip-path="url(#p7bf8c6f5c6)" style="fill: none; stroke: #6a3fb5; stroke-width: 1.6; stroke-linecap: round"/>
    <path d="M 261.42281 164.022918 
L 258.62281 169.622918 
L 255.82281 164.022918 
" clip-path="url(#p7bf8c6f5c6)" style="fill: none; stroke: #6a3fb5; stroke-width: 1.6; stroke-linecap: round"/>
    <path d="M 255.82281 45.244536 
L 258.62281 39.644536 
L 261.42281 45.244536 
" clip-path="url(#p7bf8c6f5c6)" style="fill: none; stroke: #6a3fb5; stroke-width: 1.6; stroke-linecap: round"/>
   </g>
   <g id="patch_4">
    <path d="M 110.337648 187.934026 
Q 175.326839 187.934026 240.31603 187.934026 
" clip-path="url(#p7bf8c6f5c6)" style="fill: none; stroke: #6a3fb5; stroke-width: 1.6; stroke-linecap: round"/>
    <path d="M 115.937648 190.734026 
L 110.337648 187.934026 
L 115.937648 185.134026 
" clip-path="url(#p7bf8c6f5c6)" style="fill: none; stroke: #6a3fb5; stroke-width: 1.6; stroke-linecap: round"/>
    <path d="M 234.71603 185.134026 
L 240.31603 187.934026 
L 234.71603 190.734026 
" clip-path="url(#p7bf8c6f5c6)" style="fill: none; stroke: #6a3fb5; stroke-width: 1.6; stroke-linecap: round"/>
   </g>
   <g id="line2d_1">
    <path d="M 41.589138 104.635891 
L 106.546399 39.67863 
" clip-path="url(#p7bf8c6f5c6)" style="fill: none; stroke: #6a3fb5; stroke-width: 1.9; stroke-linecap: square"/>
   </g>
   <g id="line2d_2">
    <path d="M 41.589138 104.635891 
L 106.546399 169.593152 
" clip-path="url(#p7bf8c6f5c6)" style="fill: none; stroke: #6a3fb5; stroke-width: 1.9; stroke-linecap: square"/>
   </g>
   <g id="line2d_3">
    <defs>
     <path id="md74e357c35" d="M 0 3 
C 0.795609 3 1.55874 2.683901 2.12132 2.12132 
C 2.683901 1.55874 3 0.795609 3 0 
C 3 -0.795609 2.683901 -1.55874 2.12132 -2.12132 
C 1.55874 -2.683901 0.795609 -3 0 -3 
C -0.795609 -3 -1.55874 -2.683901 -2.12132 -2.12132 
C -2.683901 -1.55874 -3 -0.795609 -3 0 
C -3 0.795609 -2.683901 1.55874 -2.12132 2.12132 
C -1.55874 2.683901 -0.795609 3 0 3 
z
" style="stroke: #6a3fb5"/>
    </defs>
    <g clip-path="url(#p7bf8c6f5c6)">
     <use xlink:href="#md74e357c35" x="41.589138" y="104.635891" style="fill: #6a3fb5; stroke: #6a3fb5"/>
    </g>
   </g>
   <g id="text_1">
    <!-- $Q(v)$ -->
    <g transform="translate(156.964675 24.394569) scale(0.17 -0.17)">
     <defs>
      <path id="DejaVuSans-Oblique-51" d="M 2309 -84 
Q 2275 -88 2237 -89 
Q 2200 -91 2125 -91 
Q 1250 -91 756 411 
Q 263 913 263 1797 
Q 263 2319 452 2844 
Q 641 3369 978 3788 
Q 1369 4269 1858 4509 
Q 2347 4750 2938 4750 
Q 3794 4750 4287 4245 
Q 4781 3741 4781 2869 
Q 4781 1928 4265 1147 
Q 3750 366 2919 44 
L 3553 -825 
L 2847 -825 
L 2309 -84 
z
M 2919 4238 
Q 2400 4238 2003 3986 
Q 1606 3734 1313 3219 
Q 1125 2891 1026 2522 
Q 928 2153 928 1778 
Q 928 1128 1239 775 
Q 1550 422 2119 422 
Q 2631 422 3032 676 
Q 3434 931 3719 1434 
Q 3909 1772 4009 2142 
Q 4109 2513 4109 2881 
Q 4109 3528 3796 3883 
Q 3484 4238 2919 4238 
z
" transform="scale(0.015625)"/>
      <path id="DejaVuSans-28" d="M 1984 4856 
Q 1566 4138 1362 3434 
Q 1159 2731 1159 2009 
Q 1159 1288 1364 580 
Q 1569 -128 1984 -844 
L 1484 -844 
Q 1016 -109 783 600 
Q 550 1309 550 2009 
Q 550 2706 781 3412 
Q 1013 4119 1484 4856 
L 1984 4856 
z
" transform="scale(0.015625)"/>
      <path id="DejaVuSans-Oblique-76" d="M 459 3500 
L 1069 3500 
L 1581 525 
L 3256 3500 
L 3866 3500 
L 1875 0 
L 1100 0 
L 459 3500 
z
" transform="scale(0.015625)"/>
      <path id="DejaVuSans-29" d="M 513 4856 
L 1013 4856 
Q 1481 4119 1714 3412 
Q 1947 2706 1947 2009 
Q 1947 1309 1714 600 
Q 1481 -109 1013 -844 
L 513 -844 
Q 928 -128 1133 580 
Q 1338 1288 1338 2009 
Q 1338 2731 1133 3434 
Q 928 4138 513 4856 
z
" transform="scale(0.015625)"/>
     </defs>
     <use xlink:href="#DejaVuSans-Oblique-51" transform="translate(0 0.125)"/>
     <use xlink:href="#DejaVuSans-28" transform="translate(78.710938 0.125)"/>
     <use xlink:href="#DejaVuSans-Oblique-76" transform="translate(117.724609 0.125)"/>
     <use xlink:href="#DejaVuSans-29" transform="translate(176.904297 0.125)"/>
    </g>
   </g>
   <g id="text_2">
    <!-- $v$ -->
    <g style="fill: #6a3fb5" transform="translate(22.982904 109.326829) scale(0.17 -0.17)">
     <use xlink:href="#DejaVuSans-Oblique-76" transform="translate(0 0.3125)"/>
    </g>
   </g>
   <g id="text_3">
    <!-- $c + r$ -->
    <g transform="translate(155.614675 73.303121) scale(0.18 -0.18)">
     <defs>
      <path id="DejaVuSans-Oblique-63" d="M 3431 3366 
L 3316 2797 
Q 3109 2947 2876 3022 
Q 2644 3097 2394 3097 
Q 2119 3097 1870 3000 
Q 1622 2903 1453 2725 
Q 1184 2453 1037 2087 
Q 891 1722 891 1331 
Q 891 859 1127 628 
Q 1363 397 1844 397 
Q 2081 397 2348 469 
Q 2616 541 2906 684 
L 2797 116 
Q 2547 13 2283 -39 
Q 2019 -91 1741 -91 
Q 1044 -91 669 257 
Q 294 606 294 1253 
Q 294 1797 489 2255 
Q 684 2713 1069 3078 
Q 1331 3328 1684 3456 
Q 2038 3584 2456 3584 
Q 2700 3584 2940 3529 
Q 3181 3475 3431 3366 
z
" transform="scale(0.015625)"/>
      <path id="DejaVuSans-2b" d="M 2944 4013 
L 2944 2272 
L 4684 2272 
L 4684 1741 
L 2944 1741 
L 2944 0 
L 2419 0 
L 2419 1741 
L 678 1741 
L 678 2272 
L 2419 2272 
L 2419 4013 
L 2944 4013 
z
" transform="scale(0.015625)"/>
      <path id="DejaVuSans-Oblique-72" d="M 2853 2969 
Q 2766 3016 2653 3041 
Q 2541 3066 2413 3066 
Q 1953 3066 1609 2717 
Q 1266 2369 1153 1784 
L 800 0 
L 225 0 
L 909 3500 
L 1484 3500 
L 1375 2956 
Q 1603 3259 1920 3421 
Q 2238 3584 2597 3584 
Q 2691 3584 2781 3573 
Q 2872 3563 2963 3538 
L 2853 2969 
z
" transform="scale(0.015625)"/>
     </defs>
     <use xlink:href="#DejaVuSans-Oblique-63" transform="translate(0 0.296875)"/>
     <use xlink:href="#DejaVuSans-2b" transform="translate(74.462891 0.296875)"/>
     <use xlink:href="#DejaVuSans-Oblique-72" transform="translate(177.734375 0.296875)"/>
    </g>
   </g>
   <g id="text_4">
    <!-- $c \in C_A^{\perp} \otimes \mathbb{F}_2^{B}$ -->
    <g transform="translate(133.474675 111.196399) scale(0.15 -0.15)">
     <defs>
      <path id="DejaVuSans-2208" d="M 1072 1959 
Q 1094 1728 1291 1353 
Q 1522 919 1959 675 
Q 2388 438 2850 434 
L 5028 434 
L 5028 -63 
L 2850 -63 
Q 2250 -63 1695 246 
Q 1141 556 844 1106 
Q 547 1656 547 2241 
Q 547 2819 844 3369 
Q 1141 3919 1695 4231 
Q 2250 4544 2850 4544 
L 5028 4544 
L 5028 4047 
L 2850 4047 
Q 2388 4044 1959 3803 
Q 1525 3556 1291 3125 
Q 1091 2750 1063 2459 
L 5028 2459 
L 5028 1959 
L 1072 1959 
z
" transform="scale(0.015625)"/>
      <path id="DejaVuSans-Oblique-43" d="M 4447 4306 
L 4319 3641 
Q 4019 3944 3683 4091 
Q 3347 4238 2956 4238 
Q 2422 4238 2017 3981 
Q 1613 3725 1319 3200 
Q 1131 2863 1032 2486 
Q 934 2109 934 1728 
Q 934 1091 1264 756 
Q 1594 422 2222 422 
Q 2656 422 3056 561 
Q 3456 700 3834 978 
L 3688 231 
Q 3316 72 2936 -9 
Q 2556 -91 2175 -91 
Q 1278 -91 773 396 
Q 269 884 269 1753 
Q 269 2309 461 2846 
Q 653 3384 1013 3828 
Q 1394 4300 1883 4525 
Q 2372 4750 3022 4750 
Q 3422 4750 3780 4639 
Q 4138 4528 4447 4306 
z
" transform="scale(0.015625)"/>
      <path id="STIXGeneral-Regular-27c2" d="M 4102 0 
L 333 0 
L 333 422 
L 2010 422 
L 2010 4237 
L 2432 4237 
L 2432 422 
L 4102 422 
L 4102 0 
z
" transform="scale(0.015625)"/>
      <path id="DejaVuSans-Oblique-41" d="M 2356 4666 
L 3072 4666 
L 3938 0 
L 3278 0 
L 3084 1197 
L 984 1197 
L 325 0 
L -341 0 
L 2356 4666 
z
M 2584 4044 
L 1275 1722 
L 2988 1722 
L 2584 4044 
z
" transform="scale(0.015625)"/>
      <path id="DejaVuSans-2297" d="M 3306 3522 
Q 3016 3644 2681 3644 
Q 2347 3644 2056 3522 
Q 1769 3400 1531 3163 
Q 1291 2922 1172 2634 
Q 1053 2347 1053 2006 
Q 1053 1675 1172 1387 
Q 1291 1100 1531 859 
Q 1769 622 2056 500 
Q 2347 378 2681 378 
Q 3016 378 3306 500 
Q 3594 622 3831 859 
Q 4072 1100 4190 1387 
Q 4309 1675 4309 2006 
Q 4309 2347 4190 2634 
Q 4072 2922 3831 3163 
Q 3594 3400 3306 3522 
z
M 1878 3956 
Q 2250 4113 2681 4113 
Q 3113 4113 3484 3956 
Q 3856 3800 4163 3494 
Q 4472 3184 4625 2813 
Q 4778 2444 4778 2006 
Q 4778 1578 4625 1206 
Q 4472 838 4163 528 
Q 3856 222 3484 65 
Q 3113 -91 2681 -91 
Q 2250 -91 1878 65 
Q 1506 222 1200 528 
Q 891 838 738 1206 
Q 584 1578 584 2006 
Q 584 2444 738 2813 
Q 891 3184 1200 3494 
Q 1506 3800 1878 3956 
z
M 3847 2794 
L 3056 2006 
L 3844 1219 
L 3469 844 
L 2681 1631 
L 1894 841 
L 1516 1219 
L 2306 2006 
L 1519 2794 
L 1894 3169 
L 2681 2381 
L 3469 3172 
L 3847 2794 
z
" transform="scale(0.015625)"/>
      <path id="STIXNonUnicode-Italic-e157" d="M 4250 4179 
L 4192 3942 
L 2150 3942 
L 1683 2176 
L 3494 2176 
L 3424 1939 
L 1619 1939 
L 1101 0 
L 115 0 
L 1229 4179 
L 4250 4179 
z
M 1914 3942 
L 1414 3942 
L 416 237 
L 928 237 
L 1914 3942 
z
" transform="scale(0.015625)"/>
      <path id="DejaVuSans-Oblique-42" d="M 1081 4666 
L 2694 4666 
Q 3350 4666 3675 4422 
Q 4000 4178 4000 3688 
Q 4000 3238 3720 2911 
Q 3441 2584 2988 2516 
Q 3375 2428 3569 2181 
Q 3763 1934 3763 1522 
Q 3763 819 3242 409 
Q 2722 0 1819 0 
L 172 0 
L 1081 4666 
z
M 1234 2228 
L 903 519 
L 1919 519 
Q 2491 519 2800 781 
Q 3109 1044 3109 1522 
Q 3109 1891 2904 2059 
Q 2700 2228 2247 2228 
L 1234 2228 
z
M 1606 4147 
L 1331 2741 
L 2272 2741 
Q 2775 2741 3058 2959 
Q 3341 3178 3341 3566 
Q 3341 3869 3150 4008 
Q 2959 4147 2541 4147 
L 1606 4147 
z
" transform="scale(0.015625)"/>
      <path id="DejaVuSans-32" d="M 1228 531 
L 3431 531 
L 3431 0 
L 469 0 
L 469 531 
Q 828 903 1448 1529 
Q 2069 2156 2228 2338 
Q 2531 2678 2651 2914 
Q 2772 3150 2772 3378 
Q 2772 3750 2511 3984 
Q 2250 4219 1831 4219 
Q 1534 4219 1204 4116 
Q 875 4013 500 3803 
L 500 4441 
Q 881 4594 1212 4672 
Q 1544 4750 1819 4750 
Q 2544 4750 2975 4387 
Q 3406 4025 3406 3419 
Q 3406 3131 3298 2873 
Q 3191 2616 2906 2266 
Q 2828 2175 2409 1742 
Q 1991 1309 1228 531 
z
" transform="scale(0.015625)"/>
     </defs>
     <use xlink:href="#DejaVuSans-Oblique-63" transform="translate(0 0.684375)"/>
     <use xlink:href="#DejaVuSans-2208" transform="translate(74.462891 0.684375)"/>
     <use xlink:href="#DejaVuSans-Oblique-43" transform="translate(181.054688 0.684375)"/>
     <use xlink:href="#STIXGeneral-Regular-27c2" transform="translate(271.717122 38.965625) scale(0.7)"/>
     <use xlink:href="#DejaVuSans-Oblique-41" transform="translate(250.878906 -26.659375) scale(0.7)"/>
     <use xlink:href="#DejaVuSans-2297" transform="translate(356.081606 0.684375)"/>
     <use xlink:href="#STIXNonUnicode-Italic-e157" transform="translate(459.35309 0.684375)"/>
     <use xlink:href="#DejaVuSans-Oblique-42" transform="translate(507.210116 38.965625) scale(0.7)"/>
     <use xlink:href="#DejaVuSans-32" transform="translate(507.210116 -26.659375) scale(0.7)"/>
    </g>
   </g>
   <g id="text_5">
    <!-- $r \in \mathbb{F}_2^{A} \otimes C_B^{\perp}$ -->
    <g transform="translate(134.524675 137.943506) scale(0.15 -0.15)">
     <use xlink:href="#DejaVuSans-Oblique-72" transform="translate(0 0.684375)"/>
     <use xlink:href="#DejaVuSans-2208" transform="translate(60.595703 0.684375)"/>
     <use xlink:href="#STIXNonUnicode-Italic-e157" transform="translate(167.1875 0.684375)"/>
     <use xlink:href="#DejaVuSans-Oblique-41" transform="translate(215.044525 38.965625) scale(0.7)"/>
     <use xlink:href="#DejaVuSans-32" transform="translate(215.044525 -26.659375) scale(0.7)"/>
     <use xlink:href="#DejaVuSans-2297" transform="translate(285.147064 0.684375)"/>
     <use xlink:href="#DejaVuSans-Oblique-43" transform="translate(388.418549 0.684375)"/>
     <use xlink:href="#STIXGeneral-Regular-27c2" transform="translate(479.080983 38.965625) scale(0.7)"/>
     <use xlink:href="#DejaVuSans-Oblique-42" transform="translate(458.242767 -26.659375) scale(0.7)"/>
    </g>
   </g>
   <g id="text_6">
    <!-- $|A|$ -->
    <g style="fill: #6a3fb5" transform="translate(270.085856 108.610891) scale(0.15 -0.15)">
     <defs>
      <path id="DejaVuSans-7c" d="M 1344 4891 
L 1344 -1509 
L 813 -1509 
L 813 4891 
L 1344 4891 
z
" transform="scale(0.015625)"/>
     </defs>
     <use xlink:href="#DejaVuSans-7c" transform="translate(0 0.578125)"/>
     <use xlink:href="#DejaVuSans-Oblique-41" transform="translate(33.691406 0.578125)"/>
     <use xlink:href="#DejaVuSans-7c" transform="translate(102.099609 0.578125)"/>
    </g>
   </g>
   <g id="text_7">
    <!-- $|B|$ -->
    <g style="fill: #6a3fb5" transform="translate(165.124675 200.161275) scale(0.15 -0.15)">
     <use xlink:href="#DejaVuSans-7c" transform="translate(0 0.578125)"/>
     <use xlink:href="#DejaVuSans-Oblique-42" transform="translate(33.691406 0.578125)"/>
     <use xlink:href="#DejaVuSans-7c" transform="translate(102.294922 0.578125)"/>
    </g>
   </g>
   <g id="text_8">
    <!-- $X$-code local view ($v \in V_{00} \sqcup V_{11}$) -->
    <g transform="translate(62.904675 220.030555) scale(0.14 -0.14)">
     <defs>
      <path id="DejaVuSans-Oblique-58" d="M 878 4666 
L 1516 4666 
L 2316 2981 
L 3763 4666 
L 4500 4666 
L 2578 2438 
L 3738 0 
L 3103 0 
L 2163 1966 
L 459 0 
L -275 0 
L 1906 2509 
L 878 4666 
z
" transform="scale(0.015625)"/>
      <path id="DejaVuSans-2d" d="M 313 2009 
L 1997 2009 
L 1997 1497 
L 313 1497 
L 313 2009 
z
" transform="scale(0.015625)"/>
      <path id="DejaVuSans-63" d="M 3122 3366 
L 3122 2828 
Q 2878 2963 2633 3030 
Q 2388 3097 2138 3097 
Q 1578 3097 1268 2742 
Q 959 2388 959 1747 
Q 959 1106 1268 751 
Q 1578 397 2138 397 
Q 2388 397 2633 464 
Q 2878 531 3122 666 
L 3122 134 
Q 2881 22 2623 -34 
Q 2366 -91 2075 -91 
Q 1284 -91 818 406 
Q 353 903 353 1747 
Q 353 2603 823 3093 
Q 1294 3584 2113 3584 
Q 2378 3584 2631 3529 
Q 2884 3475 3122 3366 
z
" transform="scale(0.015625)"/>
      <path id="DejaVuSans-6f" d="M 1959 3097 
Q 1497 3097 1228 2736 
Q 959 2375 959 1747 
Q 959 1119 1226 758 
Q 1494 397 1959 397 
Q 2419 397 2687 759 
Q 2956 1122 2956 1747 
Q 2956 2369 2687 2733 
Q 2419 3097 1959 3097 
z
M 1959 3584 
Q 2709 3584 3137 3096 
Q 3566 2609 3566 1747 
Q 3566 888 3137 398 
Q 2709 -91 1959 -91 
Q 1206 -91 779 398 
Q 353 888 353 1747 
Q 353 2609 779 3096 
Q 1206 3584 1959 3584 
z
" transform="scale(0.015625)"/>
      <path id="DejaVuSans-64" d="M 2906 2969 
L 2906 4863 
L 3481 4863 
L 3481 0 
L 2906 0 
L 2906 525 
Q 2725 213 2448 61 
Q 2172 -91 1784 -91 
Q 1150 -91 751 415 
Q 353 922 353 1747 
Q 353 2572 751 3078 
Q 1150 3584 1784 3584 
Q 2172 3584 2448 3432 
Q 2725 3281 2906 2969 
z
M 947 1747 
Q 947 1113 1208 752 
Q 1469 391 1925 391 
Q 2381 391 2643 752 
Q 2906 1113 2906 1747 
Q 2906 2381 2643 2742 
Q 2381 3103 1925 3103 
Q 1469 3103 1208 2742 
Q 947 2381 947 1747 
z
" transform="scale(0.015625)"/>
      <path id="DejaVuSans-65" d="M 3597 1894 
L 3597 1613 
L 953 1613 
Q 991 1019 1311 708 
Q 1631 397 2203 397 
Q 2534 397 2845 478 
Q 3156 559 3463 722 
L 3463 178 
Q 3153 47 2828 -22 
Q 2503 -91 2169 -91 
Q 1331 -91 842 396 
Q 353 884 353 1716 
Q 353 2575 817 3079 
Q 1281 3584 2069 3584 
Q 2775 3584 3186 3129 
Q 3597 2675 3597 1894 
z
M 3022 2063 
Q 3016 2534 2758 2815 
Q 2500 3097 2075 3097 
Q 1594 3097 1305 2825 
Q 1016 2553 972 2059 
L 3022 2063 
z
" transform="scale(0.015625)"/>
      <path id="DejaVuSans-20" transform="scale(0.015625)"/>
      <path id="DejaVuSans-6c" d="M 603 4863 
L 1178 4863 
L 1178 0 
L 603 0 
L 603 4863 
z
" transform="scale(0.015625)"/>
      <path id="DejaVuSans-61" d="M 2194 1759 
Q 1497 1759 1228 1600 
Q 959 1441 959 1056 
Q 959 750 1161 570 
Q 1363 391 1709 391 
Q 2188 391 2477 730 
Q 2766 1069 2766 1631 
L 2766 1759 
L 2194 1759 
z
M 3341 1997 
L 3341 0 
L 2766 0 
L 2766 531 
Q 2569 213 2275 61 
Q 1981 -91 1556 -91 
Q 1019 -91 701 211 
Q 384 513 384 1019 
Q 384 1609 779 1909 
Q 1175 2209 1959 2209 
L 2766 2209 
L 2766 2266 
Q 2766 2663 2505 2880 
Q 2244 3097 1772 3097 
Q 1472 3097 1187 3025 
Q 903 2953 641 2809 
L 641 3341 
Q 956 3463 1253 3523 
Q 1550 3584 1831 3584 
Q 2591 3584 2966 3190 
Q 3341 2797 3341 1997 
z
" transform="scale(0.015625)"/>
      <path id="DejaVuSans-76" d="M 191 3500 
L 800 3500 
L 1894 563 
L 2988 3500 
L 3597 3500 
L 2284 0 
L 1503 0 
L 191 3500 
z
" transform="scale(0.015625)"/>
      <path id="DejaVuSans-69" d="M 603 3500 
L 1178 3500 
L 1178 0 
L 603 0 
L 603 3500 
z
M 603 4863 
L 1178 4863 
L 1178 4134 
L 603 4134 
L 603 4863 
z
" transform="scale(0.015625)"/>
      <path id="DejaVuSans-77" d="M 269 3500 
L 844 3500 
L 1563 769 
L 2278 3500 
L 2956 3500 
L 3675 769 
L 4391 3500 
L 4966 3500 
L 4050 0 
L 3372 0 
L 2619 2869 
L 1863 0 
L 1184 0 
L 269 3500 
z
" transform="scale(0.015625)"/>
      <path id="DejaVuSans-Oblique-56" d="M 1319 0 
L 500 4666 
L 1119 4666 
L 1797 653 
L 4063 4666 
L 4750 4666 
L 2053 0 
L 1319 0 
z
" transform="scale(0.015625)"/>
      <path id="DejaVuSans-30" d="M 2034 4250 
Q 1547 4250 1301 3770 
Q 1056 3291 1056 2328 
Q 1056 1369 1301 889 
Q 1547 409 2034 409 
Q 2525 409 2770 889 
Q 3016 1369 3016 2328 
Q 3016 3291 2770 3770 
Q 2525 4250 2034 4250 
z
M 2034 4750 
Q 2819 4750 3233 4129 
Q 3647 3509 3647 2328 
Q 3647 1150 3233 529 
Q 2819 -91 2034 -91 
Q 1250 -91 836 529 
Q 422 1150 422 2328 
Q 422 3509 836 4129 
Q 1250 4750 2034 4750 
z
" transform="scale(0.015625)"/>
      <path id="DejaVuSans-2294" d="M 678 0 
L 678 4006 
L 1209 4006 
L 1209 531 
L 3784 531 
L 3784 4006 
L 4316 4006 
L 4316 0 
L 678 0 
z
" transform="scale(0.015625)"/>
      <path id="DejaVuSans-31" d="M 794 531 
L 1825 531 
L 1825 4091 
L 703 3866 
L 703 4441 
L 1819 4666 
L 2450 4666 
L 2450 531 
L 3481 531 
L 3481 0 
L 794 0 
L 794 531 
z
" transform="scale(0.015625)"/>
     </defs>
     <use xlink:href="#DejaVuSans-Oblique-58" transform="translate(0 0.015625)"/>
     <use xlink:href="#DejaVuSans-2d" transform="translate(68.505859 0.015625)"/>
     <use xlink:href="#DejaVuSans-63" transform="translate(104.589844 0.015625)"/>
     <use xlink:href="#DejaVuSans-6f" transform="translate(159.570312 0.015625)"/>
     <use xlink:href="#DejaVuSans-64" transform="translate(220.751953 0.015625)"/>
     <use xlink:href="#DejaVuSans-65" transform="translate(284.228516 0.015625)"/>
     <use xlink:href="#DejaVuSans-20" transform="translate(345.751953 0.015625)"/>
     <use xlink:href="#DejaVuSans-6c" transform="translate(377.539062 0.015625)"/>
     <use xlink:href="#DejaVuSans-6f" transform="translate(405.322266 0.015625)"/>
     <use xlink:href="#DejaVuSans-63" transform="translate(466.503906 0.015625)"/>
     <use xlink:href="#DejaVuSans-61" transform="translate(521.484375 0.015625)"/>
     <use xlink:href="#DejaVuSans-6c" transform="translate(582.763672 0.015625)"/>
     <use xlink:href="#DejaVuSans-20" transform="translate(610.546875 0.015625)"/>
     <use xlink:href="#DejaVuSans-76" transform="translate(642.333984 0.015625)"/>
     <use xlink:href="#DejaVuSans-69" transform="translate(701.513672 0.015625)"/>
     <use xlink:href="#DejaVuSans-65" transform="translate(729.296875 0.015625)"/>
     <use xlink:href="#DejaVuSans-77" transform="translate(790.820312 0.015625)"/>
     <use xlink:href="#DejaVuSans-20" transform="translate(872.607422 0.015625)"/>
     <use xlink:href="#DejaVuSans-28" transform="translate(904.394531 0.015625)"/>
     <use xlink:href="#DejaVuSans-Oblique-76" transform="translate(943.408203 0.015625)"/>
     <use xlink:href="#DejaVuSans-2208" transform="translate(1022.070312 0.015625)"/>
     <use xlink:href="#DejaVuSans-Oblique-56" transform="translate(1128.662109 0.015625)"/>
     <use xlink:href="#DejaVuSans-30" transform="translate(1197.070312 -16.390625) scale(0.7)"/>
     <use xlink:href="#DejaVuSans-30" transform="translate(1241.606445 -16.390625) scale(0.7)"/>
     <use xlink:href="#DejaVuSans-2294" transform="translate(1308.359375 0.015625)"/>
     <use xlink:href="#DejaVuSans-Oblique-56" transform="translate(1405.869141 0.015625)"/>
     <use xlink:href="#DejaVuSans-31" transform="translate(1474.277344 -16.390625) scale(0.7)"/>
     <use xlink:href="#DejaVuSans-31" transform="translate(1518.813477 -16.390625) scale(0.7)"/>
     <use xlink:href="#DejaVuSans-29" transform="translate(1566.083984 0.015625)"/>
    </g>
   </g>
  </g>
  <g id="axes_2">
   <g id="patch_5">
    <path d="M 459.608217 173.414168 
L 597.16477 173.414168 
L 597.16477 35.857615 
L 459.608217 35.857615 
L 459.608217 173.414168 
z
" clip-path="url(#p7104a52a44)" style="fill: none; stroke: #000000; stroke-width: 2; stroke-linejoin: miter"/>
   </g>
   <g id="patch_6">
    <path d="M 611.684628 169.622918 
Q 611.684628 104.633727 611.684628 39.644536 
" clip-path="url(#p7104a52a44)" style="fill: none; stroke: #6a3fb5; stroke-width: 1.6; stroke-linecap: round"/>
    <path d="M 614.484628 164.022918 
L 611.684628 169.622918 
L 608.884628 164.022918 
" clip-path="url(#p7104a52a44)" style="fill: none; stroke: #6a3fb5; stroke-width: 1.6; stroke-linecap: round"/>
    <path d="M 608.884628 45.244536 
L 611.684628 39.644536 
L 614.484628 45.244536 
" clip-path="url(#p7104a52a44)" style="fill: none; stroke: #6a3fb5; stroke-width: 1.6; stroke-linecap: round"/>
   </g>
   <g id="patch_7">
    <path d="M 463.399467 187.934026 
Q 528.388657 187.934026 593.377848 187.934026 
" clip-path="url(#p7104a52a44)" style="fill: none; stroke: #6a3fb5; stroke-width: 1.6; stroke-linecap: round"/>
    <path d="M 468.999467 190.734026 
L 463.399467 187.934026 
L 468.999467 185.134026 
" clip-path="url(#p7104a52a44)" style="fill: none; stroke: #6a3fb5; stroke-width: 1.6; stroke-linecap: round"/>
    <path d="M 587.777848 185.134026 
L 593.377848 187.934026 
L 587.777848 190.734026 
" clip-path="url(#p7104a52a44)" style="fill: none; stroke: #6a3fb5; stroke-width: 1.6; stroke-linecap: round"/>
   </g>
   <g id="line2d_4">
    <path d="M 394.650956 104.635891 
L 459.608217 39.67863 
" clip-path="url(#p7104a52a44)" style="fill: none; stroke: #6a3fb5; stroke-width: 1.9; stroke-linecap: square"/>
   </g>
   <g id="line2d_5">
    <path d="M 394.650956 104.635891 
L 459.608217 169.593152 
" clip-path="url(#p7104a52a44)" style="fill: none; stroke: #6a3fb5; stroke-width: 1.9; stroke-linecap: square"/>
   </g>
   <g id="line2d_6">
    <g clip-path="url(#p7104a52a44)">
     <use xlink:href="#md74e357c35" x="394.650956" y="104.635891" style="fill: #6a3fb5; stroke: #6a3fb5"/>
    </g>
   </g>
   <g id="text_9">
    <!-- $Q(v)$ -->
    <g transform="translate(510.026494 24.394569) scale(0.17 -0.17)">
     <use xlink:href="#DejaVuSans-Oblique-51" transform="translate(0 0.125)"/>
     <use xlink:href="#DejaVuSans-28" transform="translate(78.710938 0.125)"/>
     <use xlink:href="#DejaVuSans-Oblique-76" transform="translate(117.724609 0.125)"/>
     <use xlink:href="#DejaVuSans-29" transform="translate(176.904297 0.125)"/>
    </g>
   </g>
   <g id="text_10">
    <!-- $v$ -->
    <g style="fill: #6a3fb5" transform="translate(376.044723 109.326829) scale(0.17 -0.17)">
     <use xlink:href="#DejaVuSans-Oblique-76" transform="translate(0 0.3125)"/>
    </g>
   </g>
   <g id="text_11">
    <!-- $c + r$ -->
    <g transform="translate(508.676494 73.303121) scale(0.18 -0.18)">
     <use xlink:href="#DejaVuSans-Oblique-63" transform="translate(0 0.296875)"/>
     <use xlink:href="#DejaVuSans-2b" transform="translate(74.462891 0.296875)"/>
     <use xlink:href="#DejaVuSans-Oblique-72" transform="translate(177.734375 0.296875)"/>
    </g>
   </g>
   <g id="text_12">
    <!-- $c \in C_A \otimes \mathbb{F}_2^{B}$ -->
    <g transform="translate(489.161494 111.196399) scale(0.15 -0.15)">
     <use xlink:href="#DejaVuSans-Oblique-63" transform="translate(0 0.684375)"/>
     <use xlink:href="#DejaVuSans-2208" transform="translate(74.462891 0.684375)"/>
     <use xlink:href="#DejaVuSans-Oblique-43" transform="translate(181.054688 0.684375)"/>
     <use xlink:href="#DejaVuSans-Oblique-41" transform="translate(250.878906 -15.721875) scale(0.7)"/>
     <use xlink:href="#DejaVuSans-2297" transform="translate(320.981445 0.684375)"/>
     <use xlink:href="#STIXNonUnicode-Italic-e157" transform="translate(424.25293 0.684375)"/>
     <use xlink:href="#DejaVuSans-Oblique-42" transform="translate(472.109955 38.965625) scale(0.7)"/>
     <use xlink:href="#DejaVuSans-32" transform="translate(472.109955 -26.659375) scale(0.7)"/>
    </g>
   </g>
   <g id="text_13">
    <!-- $r \in \mathbb{F}_2^{A} \otimes C_B$ -->
    <g transform="translate(490.211494 137.943506) scale(0.15 -0.15)">
     <use xlink:href="#DejaVuSans-Oblique-72" transform="translate(0 0.684375)"/>
     <use xlink:href="#DejaVuSans-2208" transform="translate(60.595703 0.684375)"/>
     <use xlink:href="#STIXNonUnicode-Italic-e157" transform="translate(167.1875 0.684375)"/>
     <use xlink:href="#DejaVuSans-Oblique-41" transform="translate(215.044525 38.965625) scale(0.7)"/>
     <use xlink:href="#DejaVuSans-32" transform="translate(215.044525 -26.659375) scale(0.7)"/>
     <use xlink:href="#DejaVuSans-2297" transform="translate(285.147064 0.684375)"/>
     <use xlink:href="#DejaVuSans-Oblique-43" transform="translate(388.418549 0.684375)"/>
     <use xlink:href="#DejaVuSans-Oblique-42" transform="translate(458.242767 -15.721875) scale(0.7)"/>
    </g>
   </g>
   <g id="text_14">
    <!-- $|A|$ -->
    <g style="fill: #6a3fb5" transform="translate(623.147674 108.610891) scale(0.15 -0.15)">
     <use xlink:href="#DejaVuSans-7c" transform="translate(0 0.578125)"/>
     <use xlink:href="#DejaVuSans-Oblique-41" transform="translate(33.691406 0.578125)"/>
     <use xlink:href="#DejaVuSans-7c" transform="translate(102.099609 0.578125)"/>
    </g>
   </g>
   <g id="text_15">
    <!-- $|B|$ -->
    <g style="fill: #6a3fb5" transform="translate(518.186494 200.161275) scale(0.15 -0.15)">
     <use xlink:href="#DejaVuSans-7c" transform="translate(0 0.578125)"/>
     <use xlink:href="#DejaVuSans-Oblique-42" transform="translate(33.691406 0.578125)"/>
     <use xlink:href="#DejaVuSans-7c" transform="translate(102.294922 0.578125)"/>
    </g>
   </g>
   <g id="text_16">
    <!-- $Z$-code local view ($v \in V_{01} \sqcup V_{10}$) -->
    <g transform="translate(415.966494 220.030555) scale(0.14 -0.14)">
     <defs>
      <path id="DejaVuSans-Oblique-5a" d="M 838 4666 
L 4500 4666 
L 4409 4184 
L 794 531 
L 3769 531 
L 3669 0 
L -141 0 
L -50 481 
L 3566 4134 
L 738 4134 
L 838 4666 
z
" transform="scale(0.015625)"/>
     </defs>
     <use xlink:href="#DejaVuSans-Oblique-5a" transform="translate(0 0.015625)"/>
     <use xlink:href="#DejaVuSans-2d" transform="translate(68.505859 0.015625)"/>
     <use xlink:href="#DejaVuSans-63" transform="translate(104.589844 0.015625)"/>
     <use xlink:href="#DejaVuSans-6f" transform="translate(159.570312 0.015625)"/>
     <use xlink:href="#DejaVuSans-64" transform="translate(220.751953 0.015625)"/>
     <use xlink:href="#DejaVuSans-65" transform="translate(284.228516 0.015625)"/>
     <use xlink:href="#DejaVuSans-20" transform="translate(345.751953 0.015625)"/>
     <use xlink:href="#DejaVuSans-6c" transform="translate(377.539062 0.015625)"/>
     <use xlink:href="#DejaVuSans-6f" transform="translate(405.322266 0.015625)"/>
     <use xlink:href="#DejaVuSans-63" transform="translate(466.503906 0.015625)"/>
     <use xlink:href="#DejaVuSans-61" transform="translate(521.484375 0.015625)"/>
     <use xlink:href="#DejaVuSans-6c" transform="translate(582.763672 0.015625)"/>
     <use xlink:href="#DejaVuSans-20" transform="translate(610.546875 0.015625)"/>
     <use xlink:href="#DejaVuSans-76" transform="translate(642.333984 0.015625)"/>
     <use xlink:href="#DejaVuSans-69" transform="translate(701.513672 0.015625)"/>
     <use xlink:href="#DejaVuSans-65" transform="translate(729.296875 0.015625)"/>
     <use xlink:href="#DejaVuSans-77" transform="translate(790.820312 0.015625)"/>
     <use xlink:href="#DejaVuSans-20" transform="translate(872.607422 0.015625)"/>
     <use xlink:href="#DejaVuSans-28" transform="translate(904.394531 0.015625)"/>
     <use xlink:href="#DejaVuSans-Oblique-76" transform="translate(943.408203 0.015625)"/>
     <use xlink:href="#DejaVuSans-2208" transform="translate(1022.070312 0.015625)"/>
     <use xlink:href="#DejaVuSans-Oblique-56" transform="translate(1128.662109 0.015625)"/>
     <use xlink:href="#DejaVuSans-30" transform="translate(1197.070312 -16.390625) scale(0.7)"/>
     <use xlink:href="#DejaVuSans-31" transform="translate(1241.606445 -16.390625) scale(0.7)"/>
     <use xlink:href="#DejaVuSans-2294" transform="translate(1308.359375 0.015625)"/>
     <use xlink:href="#DejaVuSans-Oblique-56" transform="translate(1405.869141 0.015625)"/>
     <use xlink:href="#DejaVuSans-31" transform="translate(1474.277344 -16.390625) scale(0.7)"/>
     <use xlink:href="#DejaVuSans-30" transform="translate(1518.813477 -16.390625) scale(0.7)"/>
     <use xlink:href="#DejaVuSans-29" transform="translate(1566.083984 0.015625)"/>
    </g>
   </g>
  </g>
 </g>
 <defs>
  <clipPath id="p7bf8c6f5c6">
   <rect x="7.2" y="7.2" width="294.218182" height="225.439906"/>
  </clipPath>
  <clipPath id="p7104a52a44">
   <rect x="360.261818" y="7.2" width="294.218182" height="225.439906"/>
  </clipPath>
 </defs>
</svg>
