<?xml version="1.0" encoding="utf-8" standalone="no"?>
<!DOCTYPE svg PUBLIC "-//W3C//DTD SVG 1.1//EN"
  "http://www.w3.org/Graphics/SVG/1.1/DTD/svg11.dtd">
<svg xmlns:xlink="http://www.w3.org/1999/xlink" width="438.48pt" height="218.513271pt" viewBox="0 0 438.48 218.513271" xmlns="http://www.w3.org/2000/svg" version="1.1">
 <metadata>
  <rdf:RDF xmlns:dc="http://purl.org/dc/elements/1.1/" xmlns:cc="http://creativecommons.org/ns#" xmlns:rdf="http://www.w3.org/1999/02/22-rdf-syntax-ns#">
   <cc:Work>
    <dc:type rdf:resource="http://purl.org/dc/dcmitype/StillImage"/>
    <dc:date>2026-07-15T11:41:55.493477</dc:date>
    <dc:format>image/svg+xml</dc:format>
    <dc:creator>
     <cc:Agent>
      <dc:title>Matplotlib v3.10.8, https://matplotlib.org/</dc:title>
     </cc:Agent>
    </dc:creator>
   </cc:Work>
  </rdf:RDF>
 </metadata>
 <defs>
  <style type="text/css">*{stroke-linejoin: round; stroke-linecap: butt}</style>
 </defs>
 <g id="figure_1">
  <g id="patch_1">
   <path d="M 0 218.513271 
L 438.48 218.513271 
L 438.48 0 
L 0 0 
z
" style="fill: #ffffff"/>
  </g>
  <g id="axes_1">
   <g id="patch_2">
    <path d="M 193.301994 32.169196 
Q 276.707083 32.169196 360.112171 32.169196 
" clip-path="url(#pec293cf42d)" style="fill: none; stroke: #6a3fb5; stroke-width: 1.6; stroke-linecap: round"/>
    <path d="M 199.301994 35.169196 
L 193.301994 32.169196 
L 199.301994 29.169196 
" clip-path="url(#pec293cf42d)" style="fill: none; stroke: #6a3fb5; stroke-width: 1.6; stroke-linecap: round"/>
    <path d="M 354.112171 29.169196 
L 360.112171 32.169196 
L 354.112171 35.169196 
" clip-path="url(#pec293cf42d)" style="fill: none; stroke: #6a3fb5; stroke-width: 1.6; stroke-linecap: round"/>
   </g>
   <g id="patch_3">
    <path d="M 159.789533 171.853102 
Q 159.789533 112.228611 159.789533 52.60412 
" clip-path="url(#pec293cf42d)" style="fill: none; stroke: #6a3fb5; stroke-width: 1.6; stroke-linecap: round"/>
    <path d="M 162.789533 165.853102 
L 159.789533 171.853102 
L 156.789533 165.853102 
" clip-path="url(#pec293cf42d)" style="fill: none; stroke: #6a3fb5; stroke-width: 1.6; stroke-linecap: round"/>
    <path d="M 156.789533 58.60412 
L 159.789533 52.60412 
L 162.789533 58.60412 
" clip-path="url(#pec293cf42d)" style="fill: none; stroke: #6a3fb5; stroke-width: 1.6; stroke-linecap: round"/>
   </g>
   <g id="line2d_1">
    <path d="M 183.173383 175.642991 
L 183.173383 48.815327 
" clip-path="url(#pec293cf42d)" style="fill: none; stroke: #000000; stroke-width: 2.2; stroke-linecap: square"/>
   </g>
   <g id="line2d_2">
    <path d="M 183.173383 175.642991 
L 194.270804 175.642991 
" clip-path="url(#pec293cf42d)" style="fill: none; stroke: #000000; stroke-width: 2.2; stroke-linecap: square"/>
   </g>
   <g id="line2d_3">
    <path d="M 183.173383 48.815327 
L 194.270804 48.815327 
" clip-path="url(#pec293cf42d)" style="fill: none; stroke: #000000; stroke-width: 2.2; stroke-linecap: square"/>
   </g>
   <g id="line2d_4">
    <path d="M 370.244187 175.642991 
L 370.244187 48.815327 
" clip-path="url(#pec293cf42d)" style="fill: none; stroke: #000000; stroke-width: 2.2; stroke-linecap: square"/>
   </g>
   <g id="line2d_5">
    <path d="M 370.244187 175.642991 
L 359.146766 175.642991 
" clip-path="url(#pec293cf42d)" style="fill: none; stroke: #000000; stroke-width: 2.2; stroke-linecap: square"/>
   </g>
   <g id="line2d_6">
    <path d="M 370.244187 48.815327 
L 359.146766 48.815327 
" clip-path="url(#pec293cf42d)" style="fill: none; stroke: #000000; stroke-width: 2.2; stroke-linecap: square"/>
   </g>
   <g id="line2d_7">
    <path d="M 297.63535 170.886953 
L 297.63535 53.571364 
" clip-path="url(#pec293cf42d)" style="fill: none; stroke: #c2186b; stroke-width: 2.6; stroke-linecap: square"/>
   </g>
   <g id="line2d_8">
    <path d="M 194.270804 105.887776 
L 359.146766 105.887776 
" clip-path="url(#pec293cf42d)" style="fill: none; stroke: #6a3fb5; stroke-width: 2.6; stroke-linecap: square"/>
   </g>
   <g id="text_1">
    <!-- $\in C_A$ -->
    <g style="fill: #c2186b" transform="translate(279.11035 192.289121) scale(0.15 -0.15)">
     <defs>
      <path id="DejaVuSans-2208" d="M 1072 1959 
Q 1094 1728 1291 1353 
Q 1522 919 1959 675 
Q 2388 438 2850 434 
L 5028 434 
L 5028 -63 
L 2850 -63 
Q 2250 -63 1695 246 
Q 1141 556 844 1106 
Q 547 1656 547 2241 
Q 547 2819 844 3369 
Q 1141 3919 1695 4231 
Q 2250 4544 2850 4544 
L 5028 4544 
L 5028 4047 
L 2850 4047 
Q 2388 4044 1959 3803 
Q 1525 3556 1291 3125 
Q 1091 2750 1063 2459 
L 5028 2459 
L 5028 1959 
L 1072 1959 
z
" transform="scale(0.015625)"/>
      <path id="DejaVuSans-Oblique-43" d="M 4447 4306 
L 4319 3641 
Q 4019 3944 3683 4091 
Q 3347 4238 2956 4238 
Q 2422 4238 2017 3981 
Q 1613 3725 1319 3200 
Q 1131 2863 1032 2486 
Q 934 2109 934 1728 
Q 934 1091 1264 756 
Q 1594 422 2222 422 
Q 2656 422 3056 561 
Q 3456 700 3834 978 
L 3688 231 
Q 3316 72 2936 -9 
Q 2556 -91 2175 -91 
Q 1278 -91 773 396 
Q 269 884 269 1753 
Q 269 2309 461 2846 
Q 653 3384 1013 3828 
Q 1394 4300 1883 4525 
Q 2372 4750 3022 4750 
Q 3422 4750 3780 4639 
Q 4138 4528 4447 4306 
z
" transform="scale(0.015625)"/>
      <path id="DejaVuSans-Oblique-41" d="M 2356 4666 
L 3072 4666 
L 3938 0 
L 3278 0 
L 3084 1197 
L 984 1197 
L 325 0 
L -341 0 
L 2356 4666 
z
M 2584 4044 
L 1275 1722 
L 2988 1722 
L 2584 4044 
z
" transform="scale(0.015625)"/>
     </defs>
     <use xlink:href="#DejaVuSans-2208" transform="translate(19.482422 0.78125)"/>
     <use xlink:href="#DejaVuSans-Oblique-43" transform="translate(126.074219 0.78125)"/>
     <use xlink:href="#DejaVuSans-Oblique-41" transform="translate(195.898438 -15.625) scale(0.7)"/>
    </g>
   </g>
   <g id="text_2">
    <!-- $\in C_B$ -->
    <g style="fill: #6a3fb5" transform="translate(388.475664 110.026838) scale(0.15 -0.15)">
     <defs>
      <path id="DejaVuSans-Oblique-42" d="M 1081 4666 
L 2694 4666 
Q 3350 4666 3675 4422 
Q 4000 4178 4000 3688 
Q 4000 3238 3720 2911 
Q 3441 2584 2988 2516 
Q 3375 2428 3569 2181 
Q 3763 1934 3763 1522 
Q 3763 819 3242 409 
Q 2722 0 1819 0 
L 172 0 
L 1081 4666 
z
M 1234 2228 
L 903 519 
L 1919 519 
Q 2491 519 2800 781 
Q 3109 1044 3109 1522 
Q 3109 1891 2904 2059 
Q 2700 2228 2247 2228 
L 1234 2228 
z
M 1606 4147 
L 1331 2741 
L 2272 2741 
Q 2775 2741 3058 2959 
Q 3341 3178 3341 3566 
Q 3341 3869 3150 4008 
Q 2959 4147 2541 4147 
L 1606 4147 
z
" transform="scale(0.015625)"/>
     </defs>
     <use xlink:href="#DejaVuSans-2208" transform="translate(19.482422 0.78125)"/>
     <use xlink:href="#DejaVuSans-Oblique-43" transform="translate(126.074219 0.78125)"/>
     <use xlink:href="#DejaVuSans-Oblique-42" transform="translate(195.898438 -15.625) scale(0.7)"/>
    </g>
   </g>
   <g id="text_3">
    <!-- $|B|$ -->
    <g style="fill: #6a3fb5" transform="translate(265.828785 21.864449) scale(0.16 -0.16)">
     <defs>
      <path id="DejaVuSans-7c" d="M 1344 4891 
L 1344 -1509 
L 813 -1509 
L 813 4891 
L 1344 4891 
z
" transform="scale(0.015625)"/>
     </defs>
     <use xlink:href="#DejaVuSans-7c" transform="translate(0 0.578125)"/>
     <use xlink:href="#DejaVuSans-Oblique-42" transform="translate(33.691406 0.578125)"/>
     <use xlink:href="#DejaVuSans-7c" transform="translate(102.294922 0.578125)"/>
    </g>
   </g>
   <g id="text_4">
    <!-- $|A|$ -->
    <g style="fill: #6a3fb5" transform="translate(136.623103 116.469159) scale(0.16 -0.16)">
     <use xlink:href="#DejaVuSans-7c" transform="translate(0 0.578125)"/>
     <use xlink:href="#DejaVuSans-Oblique-41" transform="translate(33.691406 0.578125)"/>
     <use xlink:href="#DejaVuSans-7c" transform="translate(102.099609 0.578125)"/>
    </g>
   </g>
   <g id="text_5">
    <!-- $C_A \otimes C_B\; =$ -->
    <g transform="translate(20.885794 116.920096) scale(0.17 -0.17)">
     <defs>
      <path id="DejaVuSans-2297" d="M 3306 3522 
Q 3016 3644 2681 3644 
Q 2347 3644 2056 3522 
Q 1769 3400 1531 3163 
Q 1291 2922 1172 2634 
Q 1053 2347 1053 2006 
Q 1053 1675 1172 1387 
Q 1291 1100 1531 859 
Q 1769 622 2056 500 
Q 2347 378 2681 378 
Q 3016 378 3306 500 
Q 3594 622 3831 859 
Q 4072 1100 4190 1387 
Q 4309 1675 4309 2006 
Q 4309 2347 4190 2634 
Q 4072 2922 3831 3163 
Q 3594 3400 3306 3522 
z
M 1878 3956 
Q 2250 4113 2681 4113 
Q 3113 4113 3484 3956 
Q 3856 3800 4163 3494 
Q 4472 3184 4625 2813 
Q 4778 2444 4778 2006 
Q 4778 1578 4625 1206 
Q 4472 838 4163 528 
Q 3856 222 3484 65 
Q 3113 -91 2681 -91 
Q 2250 -91 1878 65 
Q 1506 222 1200 528 
Q 891 838 738 1206 
Q 584 1578 584 2006 
Q 584 2444 738 2813 
Q 891 3184 1200 3494 
Q 1506 3800 1878 3956 
z
M 3847 2794 
L 3056 2006 
L 3844 1219 
L 3469 844 
L 2681 1631 
L 1894 841 
L 1516 1219 
L 2306 2006 
L 1519 2794 
L 1894 3169 
L 2681 2381 
L 3469 3172 
L 3847 2794 
z
" transform="scale(0.015625)"/>
      <path id="DejaVuSans-3d" d="M 678 2906 
L 4684 2906 
L 4684 2381 
L 678 2381 
L 678 2906 
z
M 678 1631 
L 4684 1631 
L 4684 1100 
L 678 1100 
L 678 1631 
z
" transform="scale(0.015625)"/>
     </defs>
     <use xlink:href="#DejaVuSans-Oblique-43" transform="translate(0 0.78125)"/>
     <use xlink:href="#DejaVuSans-Oblique-41" transform="translate(69.824219 -15.625) scale(0.7)"/>
     <use xlink:href="#DejaVuSans-2297" transform="translate(139.926758 0.78125)"/>
     <use xlink:href="#DejaVuSans-Oblique-43" transform="translate(243.198242 0.78125)"/>
     <use xlink:href="#DejaVuSans-Oblique-42" transform="translate(313.022461 -15.625) scale(0.7)"/>
     <use xlink:href="#DejaVuSans-3d" transform="translate(410.320854 0.78125)"/>
    </g>
   </g>
   <g id="line2d_9">
    <defs>
     <path id="m1f325a3659" d="M 0 2.5 
C 0.663008 2.5 1.29895 2.236584 1.767767 1.767767 
C 2.236584 1.29895 2.5 0.663008 2.5 0 
C 2.5 -0.663008 2.236584 -1.29895 1.767767 -1.767767 
C 1.29895 -2.236584 0.663008 -2.5 0 -2.5 
C -0.663008 -2.5 -1.29895 -2.236584 -1.767767 -1.767767 
C -2.236584 -1.29895 -2.5 -0.663008 -2.5 0 
C -2.5 0.663008 -2.236584 1.29895 -1.767767 1.767767 
C -1.29895 2.236584 -0.663008 2.5 0 2.5 
z
" style="stroke: #000000"/>
    </defs>
    <g clip-path="url(#pec293cf42d)">
     <use xlink:href="#m1f325a3659" x="297.63535" y="105.887776" style="stroke: #000000"/>
    </g>
   </g>
  </g>
 </g>
 <defs>
  <clipPath id="pec293cf42d">
   <rect x="7.2" y="7.2" width="424.08" height="204.113271"/>
  </clipPath>
 </defs>
</svg>
