<?xml version="1.0" encoding="utf-8" standalone="no"?>
<!DOCTYPE svg PUBLIC "-//W3C//DTD SVG 1.1//EN"
  "http://www.w3.org/Graphics/SVG/1.1/DTD/svg11.dtd">
<svg xmlns:xlink="http://www.w3.org/1999/xlink" width="427.32pt" height="364.992453pt" viewBox="0 0 427.32 364.992453" xmlns="http://www.w3.org/2000/svg" version="1.1">
 <metadata>
  <rdf:RDF xmlns:dc="http://purl.org/dc/elements/1.1/" xmlns:cc="http://creativecommons.org/ns#" xmlns:rdf="http://www.w3.org/1999/02/22-rdf-syntax-ns#">
   <cc:Work>
    <dc:type rdf:resource="http://purl.org/dc/dcmitype/StillImage"/>
    <dc:date>2026-07-15T11:41:55.024456</dc:date>
    <dc:format>image/svg+xml</dc:format>
    <dc:creator>
     <cc:Agent>
      <dc:title>Matplotlib v3.10.8, https://matplotlib.org/</dc:title>
     </cc:Agent>
    </dc:creator>
   </cc:Work>
  </rdf:RDF>
 </metadata>
 <defs>
  <style type="text/css">*{stroke-linejoin: round; stroke-linecap: butt}</style>
 </defs>
 <g id="figure_1">
  <g id="patch_1">
   <path d="M 0 364.992453 
L 427.32 364.992453 
L 427.32 0 
L 0 0 
z
" style="fill: #ffffff"/>
  </g>
  <g id="axes_1">
   <g id="patch_2">
    <path d="M 108.482264 328.576415 
C 119.329721 328.576415 129.734355 324.266675 137.404666 316.596364 
C 145.074977 308.926053 149.384717 298.52142 149.384717 287.673962 
C 149.384717 276.826505 145.074977 266.421871 137.404666 258.751561 
C 129.734355 251.08125 119.329721 246.771509 108.482264 246.771509 
C 97.634807 246.771509 87.230173 251.08125 79.559862 258.751561 
C 71.889552 266.421871 67.579811 276.826505 67.579811 287.673962 
C 67.579811 298.52142 71.889552 308.926053 79.559862 316.596364 
C 87.230173 324.266675 97.634807 328.576415 108.482264 328.576415 
L 108.482264 328.576415 
z
" clip-path="url(#p2d04ea4c31)" style="fill: none; stroke: #000000; stroke-width: 1.3; stroke-linejoin: miter"/>
   </g>
   <g id="patch_3">
    <path d="M 318.837736 328.576415 
C 329.685193 328.576415 340.089827 324.266675 347.760138 316.596364 
C 355.430448 308.926053 359.740189 298.52142 359.740189 287.673962 
C 359.740189 276.826505 355.430448 266.421871 347.760138 258.751561 
C 340.089827 251.08125 329.685193 246.771509 318.837736 246.771509 
C 307.990279 246.771509 297.585645 251.08125 289.915334 258.751561 
C 282.245023 266.421871 277.935283 276.826505 277.935283 287.673962 
C 277.935283 298.52142 282.245023 308.926053 289.915334 316.596364 
C 297.585645 324.266675 307.990279 328.576415 318.837736 328.576415 
L 318.837736 328.576415 
z
" clip-path="url(#p2d04ea4c31)" style="fill: none; stroke: #000000; stroke-width: 1.3; stroke-linejoin: miter"/>
   </g>
   <g id="patch_4">
    <path d="M 108.482264 118.220943 
C 119.329721 118.220943 129.734355 113.911203 137.404666 106.240892 
C 145.074977 98.570582 149.384717 88.165948 149.384717 77.318491 
C 149.384717 66.471033 145.074977 56.066399 137.404666 48.396089 
C 129.734355 40.725778 119.329721 36.416038 108.482264 36.416038 
C 97.634807 36.416038 87.230173 40.725778 79.559862 48.396089 
C 71.889552 56.066399 67.579811 66.471033 67.579811 77.318491 
C 67.579811 88.165948 71.889552 98.570582 79.559862 106.240892 
C 87.230173 113.911203 97.634807 118.220943 108.482264 118.220943 
L 108.482264 118.220943 
z
" clip-path="url(#p2d04ea4c31)" style="fill: none; stroke: #000000; stroke-width: 1.3; stroke-linejoin: miter"/>
   </g>
   <g id="patch_5">
    <path d="M 318.837736 118.220943 
C 329.685193 118.220943 340.089827 113.911203 347.760138 106.240892 
C 355.430448 98.570582 359.740189 88.165948 359.740189 77.318491 
C 359.740189 66.471033 355.430448 56.066399 347.760138 48.396089 
C 340.089827 40.725778 329.685193 36.416038 318.837736 36.416038 
C 307.990279 36.416038 297.585645 40.725778 289.915334 48.396089 
C 282.245023 56.066399 277.935283 66.471033 277.935283 77.318491 
C 277.935283 88.165948 282.245023 98.570582 289.915334 106.240892 
C 297.585645 113.911203 307.990279 118.220943 318.837736 118.220943 
L 318.837736 118.220943 
z
" clip-path="url(#p2d04ea4c31)" style="fill: none; stroke: #000000; stroke-width: 1.3; stroke-linejoin: miter"/>
   </g>
   <g id="text_1">
    <!-- $V_{00}$ -->
    <g transform="translate(35.222453 292.088962) scale(0.16 -0.16)">
     <defs>
      <path id="DejaVuSans-Oblique-56" d="M 1319 0 
L 500 4666 
L 1119 4666 
L 1797 653 
L 4063 4666 
L 4750 4666 
L 2053 0 
L 1319 0 
z
" transform="scale(0.015625)"/>
      <path id="DejaVuSans-30" d="M 2034 4250 
Q 1547 4250 1301 3770 
Q 1056 3291 1056 2328 
Q 1056 1369 1301 889 
Q 1547 409 2034 409 
Q 2525 409 2770 889 
Q 3016 1369 3016 2328 
Q 3016 3291 2770 3770 
Q 2525 4250 2034 4250 
z
M 2034 4750 
Q 2819 4750 3233 4129 
Q 3647 3509 3647 2328 
Q 3647 1150 3233 529 
Q 2819 -91 2034 -91 
Q 1250 -91 836 529 
Q 422 1150 422 2328 
Q 422 3509 836 4129 
Q 1250 4750 2034 4750 
z
" transform="scale(0.015625)"/>
     </defs>
     <use xlink:href="#DejaVuSans-Oblique-56" transform="translate(0 0.09375)"/>
     <use xlink:href="#DejaVuSans-30" transform="translate(68.408203 -16.3125) scale(0.7)"/>
     <use xlink:href="#DejaVuSans-30" transform="translate(112.944336 -16.3125) scale(0.7)"/>
    </g>
   </g>
   <g id="text_2">
    <!-- $(g,\,00)$ -->
    <g style="fill: #6a3fb5" transform="translate(135.127291 278.645953) scale(0.125 -0.125)">
     <defs>
      <path id="DejaVuSans-28" d="M 1984 4856 
Q 1566 4138 1362 3434 
Q 1159 2731 1159 2009 
Q 1159 1288 1364 580 
Q 1569 -128 1984 -844 
L 1484 -844 
Q 1016 -109 783 600 
Q 550 1309 550 2009 
Q 550 2706 781 3412 
Q 1013 4119 1484 4856 
L 1984 4856 
z
" transform="scale(0.015625)"/>
      <path id="DejaVuSans-Oblique-67" d="M 3816 3500 
L 3219 434 
Q 3047 -456 2561 -893 
Q 2075 -1331 1253 -1331 
Q 950 -1331 690 -1286 
Q 431 -1241 206 -1147 
L 313 -588 
Q 525 -725 762 -790 
Q 1000 -856 1269 -856 
Q 1816 -856 2167 -557 
Q 2519 -259 2631 300 
L 2681 563 
Q 2441 288 2122 144 
Q 1803 0 1434 0 
Q 903 0 598 351 
Q 294 703 294 1319 
Q 294 1803 478 2267 
Q 663 2731 997 3091 
Q 1219 3328 1514 3456 
Q 1809 3584 2131 3584 
Q 2484 3584 2746 3420 
Q 3009 3256 3138 2956 
L 3238 3500 
L 3816 3500 
z
M 2950 2216 
Q 2950 2641 2750 2872 
Q 2550 3103 2181 3103 
Q 1953 3103 1747 3012 
Q 1541 2922 1394 2759 
Q 1156 2491 1023 2127 
Q 891 1763 891 1375 
Q 891 944 1092 712 
Q 1294 481 1672 481 
Q 2219 481 2584 976 
Q 2950 1472 2950 2216 
z
" transform="scale(0.015625)"/>
      <path id="DejaVuSans-2c" d="M 750 794 
L 1409 794 
L 1409 256 
L 897 -744 
L 494 -744 
L 750 256 
L 750 794 
z
" transform="scale(0.015625)"/>
      <path id="DejaVuSans-29" d="M 513 4856 
L 1013 4856 
Q 1481 4119 1714 3412 
Q 1947 2706 1947 2009 
Q 1947 1309 1714 600 
Q 1481 -109 1013 -844 
L 513 -844 
Q 928 -128 1133 580 
Q 1338 1288 1338 2009 
Q 1338 2731 1133 3434 
Q 928 4138 513 4856 
z
" transform="scale(0.015625)"/>
     </defs>
     <use xlink:href="#DejaVuSans-28" transform="translate(0 0.125)"/>
     <use xlink:href="#DejaVuSans-Oblique-67" transform="translate(39.013672 0.125)"/>
     <use xlink:href="#DejaVuSans-2c" transform="translate(102.490234 0.125)"/>
     <use xlink:href="#DejaVuSans-30" transform="translate(169.995442 0.125)"/>
     <use xlink:href="#DejaVuSans-30" transform="translate(233.618489 0.125)"/>
     <use xlink:href="#DejaVuSans-29" transform="translate(297.241536 0.125)"/>
    </g>
   </g>
   <g id="text_3">
    <!-- $V_{10}$ -->
    <g transform="translate(366.337547 292.088962) scale(0.16 -0.16)">
     <defs>
      <path id="DejaVuSans-31" d="M 794 531 
L 1825 531 
L 1825 4091 
L 703 3866 
L 703 4441 
L 1819 4666 
L 2450 4666 
L 2450 531 
L 3481 531 
L 3481 0 
L 794 0 
L 794 531 
z
" transform="scale(0.015625)"/>
     </defs>
     <use xlink:href="#DejaVuSans-Oblique-56" transform="translate(0 0.09375)"/>
     <use xlink:href="#DejaVuSans-31" transform="translate(68.408203 -16.3125) scale(0.7)"/>
     <use xlink:href="#DejaVuSans-30" transform="translate(112.944336 -16.3125) scale(0.7)"/>
    </g>
   </g>
   <g id="text_4">
    <!-- $(ag,\,10)$ -->
    <g style="fill: #6a3fb5" transform="translate(242.442709 278.645953) scale(0.125 -0.125)">
     <defs>
      <path id="DejaVuSans-Oblique-61" d="M 3438 1997 
L 3047 0 
L 2472 0 
L 2578 531 
Q 2325 219 2001 64 
Q 1678 -91 1281 -91 
Q 834 -91 548 182 
Q 263 456 263 884 
Q 263 1497 752 1853 
Q 1241 2209 2100 2209 
L 2900 2209 
L 2931 2363 
Q 2938 2388 2941 2417 
Q 2944 2447 2944 2509 
Q 2944 2788 2717 2942 
Q 2491 3097 2081 3097 
Q 1800 3097 1504 3025 
Q 1209 2953 897 2809 
L 997 3341 
Q 1322 3463 1633 3523 
Q 1944 3584 2234 3584 
Q 2853 3584 3176 3315 
Q 3500 3047 3500 2534 
Q 3500 2431 3484 2292 
Q 3469 2153 3438 1997 
z
M 2816 1759 
L 2241 1759 
Q 1534 1759 1195 1570 
Q 856 1381 856 984 
Q 856 709 1029 553 
Q 1203 397 1509 397 
Q 1978 397 2328 733 
Q 2678 1069 2791 1631 
L 2816 1759 
z
" transform="scale(0.015625)"/>
     </defs>
     <use xlink:href="#DejaVuSans-28" transform="translate(0 0.125)"/>
     <use xlink:href="#DejaVuSans-Oblique-61" transform="translate(39.013672 0.125)"/>
     <use xlink:href="#DejaVuSans-Oblique-67" transform="translate(100.292969 0.125)"/>
     <use xlink:href="#DejaVuSans-2c" transform="translate(163.769531 0.125)"/>
     <use xlink:href="#DejaVuSans-31" transform="translate(231.274739 0.125)"/>
     <use xlink:href="#DejaVuSans-30" transform="translate(294.897786 0.125)"/>
     <use xlink:href="#DejaVuSans-29" transform="translate(358.520833 0.125)"/>
    </g>
   </g>
   <g id="text_5">
    <!-- $V_{01}$ -->
    <g transform="translate(35.222453 81.733491) scale(0.16 -0.16)">
     <use xlink:href="#DejaVuSans-Oblique-56" transform="translate(0 0.09375)"/>
     <use xlink:href="#DejaVuSans-30" transform="translate(68.408203 -16.3125) scale(0.7)"/>
     <use xlink:href="#DejaVuSans-31" transform="translate(112.944336 -16.3125) scale(0.7)"/>
    </g>
   </g>
   <g id="text_6">
    <!-- $(gb,\,01)$ -->
    <g style="fill: #6a3fb5" transform="translate(135.127291 93.2215) scale(0.125 -0.125)">
     <defs>
      <path id="DejaVuSans-Oblique-62" d="M 3169 2138 
Q 3169 2591 2961 2847 
Q 2753 3103 2388 3103 
Q 2122 3103 1889 2973 
Q 1656 2844 1484 2597 
Q 1303 2338 1198 1995 
Q 1094 1653 1094 1313 
Q 1094 881 1298 636 
Q 1503 391 1863 391 
Q 2134 391 2365 517 
Q 2597 644 2772 891 
Q 2950 1147 3059 1487 
Q 3169 1828 3169 2138 
z
M 1381 2969 
Q 1594 3256 1914 3420 
Q 2234 3584 2584 3584 
Q 3122 3584 3439 3221 
Q 3756 2859 3756 2241 
Q 3756 1734 3570 1259 
Q 3384 784 3041 416 
Q 2816 172 2522 40 
Q 2228 -91 1906 -91 
Q 1566 -91 1316 65 
Q 1066 222 909 531 
L 806 0 
L 231 0 
L 1178 4863 
L 1753 4863 
L 1381 2969 
z
" transform="scale(0.015625)"/>
     </defs>
     <use xlink:href="#DejaVuSans-28" transform="translate(0 0.015625)"/>
     <use xlink:href="#DejaVuSans-Oblique-67" transform="translate(39.013672 0.015625)"/>
     <use xlink:href="#DejaVuSans-Oblique-62" transform="translate(102.490234 0.015625)"/>
     <use xlink:href="#DejaVuSans-2c" transform="translate(165.966797 0.015625)"/>
     <use xlink:href="#DejaVuSans-30" transform="translate(233.472004 0.015625)"/>
     <use xlink:href="#DejaVuSans-31" transform="translate(297.095051 0.015625)"/>
     <use xlink:href="#DejaVuSans-29" transform="translate(360.718098 0.015625)"/>
    </g>
   </g>
   <g id="text_7">
    <!-- $V_{11}$ -->
    <g transform="translate(366.337547 81.733491) scale(0.16 -0.16)">
     <use xlink:href="#DejaVuSans-Oblique-56" transform="translate(0 0.09375)"/>
     <use xlink:href="#DejaVuSans-31" transform="translate(68.408203 -16.3125) scale(0.7)"/>
     <use xlink:href="#DejaVuSans-31" transform="translate(112.944336 -16.3125) scale(0.7)"/>
    </g>
   </g>
   <g id="text_8">
    <!-- $(agb,\,11)$ -->
    <g style="fill: #6a3fb5" transform="translate(234.442709 93.2215) scale(0.125 -0.125)">
     <use xlink:href="#DejaVuSans-28" transform="translate(0 0.015625)"/>
     <use xlink:href="#DejaVuSans-Oblique-61" transform="translate(39.013672 0.015625)"/>
     <use xlink:href="#DejaVuSans-Oblique-67" transform="translate(100.292969 0.015625)"/>
     <use xlink:href="#DejaVuSans-Oblique-62" transform="translate(163.769531 0.015625)"/>
     <use xlink:href="#DejaVuSans-2c" transform="translate(227.246094 0.015625)"/>
     <use xlink:href="#DejaVuSans-31" transform="translate(294.751301 0.015625)"/>
     <use xlink:href="#DejaVuSans-31" transform="translate(358.374348 0.015625)"/>
     <use xlink:href="#DejaVuSans-29" transform="translate(421.997395 0.015625)"/>
    </g>
   </g>
   <g id="patch_6">
    <path d="M 134.278542 264.661405 
Q 213.661 319.101424 293.043458 264.660034 
" clip-path="url(#p2d04ea4c31)" style="fill: none; stroke: #6a3fb5; stroke-width: 1.7; stroke-linecap: round"/>
   </g>
   <g id="text_9">
    <!-- $a$ -->
    <g style="fill: #6a3fb5" transform="translate(209.32 324.648597) scale(0.14 -0.14)">
     <use xlink:href="#DejaVuSans-Oblique-61"/>
    </g>
   </g>
   <g id="patch_7">
    <path d="M 134.278542 100.331048 
Q 213.661 45.891029 293.043458 100.332419 
" clip-path="url(#p2d04ea4c31)" style="fill: none; stroke: #6a3fb5; stroke-width: 1.7; stroke-linecap: round"/>
   </g>
   <g id="text_10">
    <!-- $a$ -->
    <g style="fill: #6a3fb5" transform="translate(209.32 48.070106) scale(0.14 -0.14)">
     <use xlink:href="#DejaVuSans-Oblique-61"/>
    </g>
   </g>
   <g id="patch_8">
    <path d="M 131.494821 261.877685 
Q 77.054803 182.495227 131.496193 103.112769 
" clip-path="url(#p2d04ea4c31)" style="fill: none; stroke: #6a3fb5; stroke-width: 1.7; stroke-linecap: round"/>
   </g>
   <g id="text_11">
    <!-- $b$ -->
    <g style="fill: #6a3fb5" transform="translate(70.890755 186.359351) scale(0.14 -0.14)">
     <use xlink:href="#DejaVuSans-Oblique-62" transform="translate(0 0.015625)"/>
    </g>
   </g>
   <g id="patch_9">
    <path d="M 295.825179 261.877685 
Q 350.265197 182.495227 295.823807 103.112769 
" clip-path="url(#p2d04ea4c31)" style="fill: none; stroke: #6a3fb5; stroke-width: 1.7; stroke-linecap: round"/>
   </g>
   <g id="text_12">
    <!-- $b$ -->
    <g style="fill: #6a3fb5" transform="translate(347.469245 186.359351) scale(0.14 -0.14)">
     <use xlink:href="#DejaVuSans-Oblique-62" transform="translate(0 0.015625)"/>
    </g>
   </g>
   <g id="line2d_1">
    <defs>
     <path id="mda4795c5aa" d="M 0 3.25 
C 0.86191 3.25 1.688635 2.907559 2.298097 2.298097 
C 2.907559 1.688635 3.25 0.86191 3.25 0 
C 3.25 -0.86191 2.907559 -1.688635 2.298097 -2.298097 
C 1.688635 -2.907559 0.86191 -3.25 0 -3.25 
C -0.86191 -3.25 -1.688635 -2.907559 -2.298097 -2.298097 
C -2.907559 -1.688635 -3.25 -0.86191 -3.25 0 
C -3.25 0.86191 -2.907559 1.688635 -2.298097 2.298097 
C -1.688635 2.907559 -0.86191 3.25 0 3.25 
z
" style="stroke: #6a3fb5"/>
    </defs>
    <g clip-path="url(#p2d04ea4c31)">
     <use xlink:href="#mda4795c5aa" x="132.634189" y="263.522038" style="fill: #6a3fb5; stroke: #6a3fb5"/>
    </g>
   </g>
   <g id="line2d_2">
    <g clip-path="url(#p2d04ea4c31)">
     <use xlink:href="#mda4795c5aa" x="294.685811" y="263.522038" style="fill: #6a3fb5; stroke: #6a3fb5"/>
    </g>
   </g>
   <g id="line2d_3">
    <g clip-path="url(#p2d04ea4c31)">
     <use xlink:href="#mda4795c5aa" x="132.634189" y="101.470415" style="fill: #6a3fb5; stroke: #6a3fb5"/>
    </g>
   </g>
   <g id="line2d_4">
    <g clip-path="url(#p2d04ea4c31)">
     <use xlink:href="#mda4795c5aa" x="294.685811" y="101.470415" style="fill: #6a3fb5; stroke: #6a3fb5"/>
    </g>
   </g>
  </g>
 </g>
 <defs>
  <clipPath id="p2d04ea4c31">
   <rect x="7.2" y="7.2" width="412.92" height="350.592453"/>
  </clipPath>
 </defs>
</svg>
